<svg width="48" height="48" viewBox="0 0 48 48" fill="none" xmlns="http://www.w3.org/2000/svg">
<rect width="48" height="48" rx="24" fill="#D11E1F"/>
<path d="M17.333 19.333L21.2557 21.6522C23.5426 23.0043 24.4567 23.0043 26.7437 21.6522L30.6663 19.333" stroke="white" stroke-linecap="round" stroke-linejoin="round"/>
<path d="M10.688 25.9678C10.7752 30.0552 10.8188 32.0989 12.3269 33.6128C13.8351 35.1268 15.9341 35.1794 20.1321 35.2849C22.7194 35.35 25.2813 35.35 27.8686 35.2849C32.0666 35.1794 34.1655 35.1268 35.6737 33.6128C37.1819 32.0989 37.2255 30.0552 37.3126 25.9678C37.3407 24.6536 37.3407 23.347 37.3126 22.0329C37.2255 17.9455 37.1819 15.9018 35.6737 14.3879C34.1655 12.874 32.0666 12.8212 27.8686 12.7158C25.2813 12.6507 22.7194 12.6507 20.1321 12.7157C15.9341 12.8212 13.8351 12.8739 12.3269 14.3879C10.8188 15.9018 10.7752 17.9455 10.688 22.0328C10.66 23.347 10.66 24.6536 10.688 25.9678Z" stroke="white" stroke-linejoin="round"/>
</svg>
