<svg width="48" height="48" viewBox="0 0 48 48" fill="none" xmlns="http://www.w3.org/2000/svg">
<rect width="48" height="48" rx="24" fill="#D11E1F"/>
<path d="M23.9809 28.5444L28.3027 33.4581C29.9039 35.2785 30.7046 36.1888 31.5426 35.9672C32.3806 35.7456 32.6681 34.5477 33.2427 32.1517L36.4309 18.8612C37.3161 15.1711 37.7586 13.3261 36.7747 12.416C35.791 11.506 34.0857 12.183 30.6751 13.5371L14.852 19.8193C12.1242 20.9023 10.7603 21.4439 10.6738 22.3744C10.6649 22.4696 10.6647 22.5655 10.6733 22.6607C10.757 23.5916 12.1193 24.1377 14.8437 25.2297C16.0782 25.7245 16.6954 25.972 17.1379 26.4459C17.1877 26.4991 17.2355 26.5543 17.2814 26.6112C17.6891 27.1179 17.8631 27.7828 18.2111 29.1125L18.8624 31.6013C19.201 32.8953 19.3703 33.5424 19.8138 33.6307C20.2572 33.7188 20.6433 33.1823 21.4155 32.1092L23.9809 28.5444ZM23.9809 28.5444L23.5571 28.1028C23.0749 27.6001 22.8338 27.3489 22.8338 27.0367C22.8338 26.7244 23.0749 26.4731 23.5571 25.9704L28.3211 21.0055" stroke="white" stroke-linecap="round" stroke-linejoin="round"/>
</svg>
