<svg width="20" height="20" viewBox="0 0 20 20" fill="none" xmlns="http://www.w3.org/2000/svg">
<g clip-path="url(#clip0_16422_660)">
<path d="M18.3333 10.0013C18.3333 5.39893 14.6024 1.66797 10 1.66797" stroke="#D11E1F" stroke-width="1.5" stroke-linecap="round"/>
<path d="M18.3327 10.0013C18.3327 14.6037 14.6017 18.3346 9.99935 18.3346C5.39698 18.3346 1.66602 14.6037 1.66602 10.0013C1.66602 5.39893 5.39698 1.66797 9.99935 1.66797" stroke="#D11E1F" stroke-width="1.5" stroke-linecap="round" stroke-linejoin="round" stroke-dasharray="0.5 3"/>
<path d="M11.25 10C11.25 10.6904 10.6904 11.25 10 11.25C9.30964 11.25 8.75 10.6904 8.75 10C8.75 9.30964 9.30964 8.75 10 8.75C10.6904 8.75 11.25 9.30964 11.25 10Z" stroke="#D11E1F" stroke-width="1.5"/>
<path d="M11.2507 10H13.334M10.0007 5V8.75" stroke="#D11E1F" stroke-width="1.5" stroke-linecap="round" stroke-linejoin="round"/>
</g>
<defs>
<clipPath id="clip0_16422_660">
<rect width="20" height="20" fill="white"/>
</clipPath>
</defs>
</svg>
