<svg width="48" height="48" viewBox="0 0 48 48" fill="none" xmlns="http://www.w3.org/2000/svg">
<rect width="48" height="48" rx="24" fill="#D11E1F"/>
<path d="M26.667 22.3315V17.4038C26.667 16.2937 26.4655 16.0705 25.3598 16.0705L22.2265 16.0001C21.2511 16.0001 20.7634 16.0001 20.5663 16.3163C20.3692 16.6325 20.5872 17.0649 21.0235 17.9297C21.2657 18.4101 21.3953 18.7579 21.3953 19.2963V22.842C21.3953 23.9633 21.3953 24.524 20.9692 24.6903C20.5432 24.8567 20.1891 24.4803 19.481 23.7276C17.7454 21.8825 16.8421 19.5791 16.2483 17.0685C16.1254 16.5486 16.0639 16.2886 15.8803 16.1444C15.6968 16.0001 15.4354 16.0001 14.9126 16.0001H11.9802C11.3369 16.0001 11.0152 16.0001 10.8143 16.2276C10.6134 16.4551 10.6523 16.7452 10.7302 17.3255C11.4332 22.5609 16.0377 31.146 24.5435 31.9649C26.0499 32.11 26.667 31.7028 26.667 30.0521C26.667 29.1165 26.6471 27.6039 27.8246 27.4056C28.4411 27.3019 28.8565 27.5208 29.5462 28.0993C30.741 29.1013 31.3666 30.3245 31.8026 31.2541C32.0918 31.8709 32.3069 32 32.9865 32H35.7521C37.1494 32 37.5301 31.6589 36.9077 30.3473C36.1197 28.6868 34.9982 27.3676 33.9785 26.4893C33.1315 25.7599 32.7081 25.3951 32.6845 25.1267C32.6607 24.8581 32.9715 24.4781 33.5929 23.718C34.7934 22.2495 36.4273 19.9437 37.1899 17.4971C37.5678 16.285 37.2123 16.0001 35.9843 16.0001H33.5002C32.2969 16.0001 32.2977 15.9585 32.0137 17.3237C31.5526 19.539 30.0426 21.6681 28.6242 23.1176C27.9514 23.8052 27.5445 24.2193 27.1246 24.0505C26.7049 23.8819 26.667 23.3651 26.667 22.3315Z" stroke="white" stroke-linecap="round" stroke-linejoin="round"/>
</svg>
