<svg width="48" height="48" viewBox="0 0 48 48" fill="none" xmlns="http://www.w3.org/2000/svg">
<rect width="48" height="48" rx="24" fill="#D11E1F"/>
<path d="M24.0003 37.3337C31.3641 37.3337 37.3337 31.3641 37.3337 24.0003C37.3337 16.6365 31.3641 10.667 24.0003 10.667C16.6365 10.667 10.667 16.6365 10.667 24.0003C10.667 25.8389 11.0391 27.5905 11.7121 29.1839C12.084 30.0645 12.27 30.5049 12.293 30.8377C12.3161 31.1705 12.2181 31.5365 12.0222 32.2686L10.667 37.3337L15.732 35.9785C16.4642 35.7826 16.8302 35.6846 17.163 35.7077C17.4958 35.7306 17.9361 35.9166 18.8168 36.2886C20.4103 36.9615 22.1618 37.3337 24.0003 37.3337Z" stroke="white" stroke-linejoin="round"/>
<path d="M19.4505 24.5027L20.6118 23.0605C21.1012 22.4526 21.7062 21.8867 21.7537 21.0774C21.7655 20.8729 21.6218 19.9551 21.3341 18.1195C21.221 17.3981 20.5475 17.333 19.9641 17.333C19.2039 17.333 18.8237 17.333 18.4463 17.5054C17.9692 17.7233 17.4794 18.3361 17.3719 18.8494C17.2869 19.2556 17.3501 19.5355 17.4765 20.0953C18.0133 22.4727 19.2728 24.8207 21.2256 26.7737C23.1786 28.7266 25.5266 29.9861 27.9041 30.5229C28.4638 30.6493 28.7437 30.7125 29.1499 30.6274C29.6633 30.5199 30.2759 30.0302 30.4939 29.553C30.6663 29.1755 30.6663 28.7955 30.6663 28.0353C30.6663 27.4518 30.6013 26.7783 29.8798 26.6653C28.0442 26.3775 27.1265 26.2338 26.9219 26.2457C26.1126 26.2931 25.5467 26.8981 24.9389 27.3875L23.4966 28.5487" stroke="white"/>
</svg>
